<svg width="1280" height="720" viewBox="0 0 1280 720" fill="none" xmlns="http://www.w3.org/2000/svg">
  <rect width="1280" height="720" fill="#08131C"/>
  <rect x="70" y="62" width="1140" height="596" rx="28" fill="#122A39"/>

  <rect x="118" y="128" width="660" height="412" rx="20" fill="#0C202C" stroke="#18D2A6" stroke-opacity="0.35"/>
  <rect x="152" y="168" width="592" height="58" rx="12" fill="#1D455A"/>
  <rect x="152" y="246" width="180" height="250" rx="12" fill="#173A4D"/>
  <rect x="350" y="246" width="180" height="250" rx="12" fill="#173A4D"/>
  <rect x="548" y="246" width="180" height="250" rx="12" fill="#173A4D"/>

  <rect x="824" y="160" width="340" height="380" rx="18" fill="#0C202C" stroke="#FF8C42" stroke-opacity="0.4"/>
  <text x="854" y="214" fill="#EAF4FF" font-size="32" font-family="Arial, sans-serif">Cart Summary</text>
  <rect x="854" y="236" width="280" height="2" fill="#355464"/>
  <rect x="854" y="272" width="220" height="18" rx="7" fill="#27566D"/>
  <rect x="854" y="308" width="240" height="18" rx="7" fill="#27566D"/>
  <rect x="854" y="344" width="180" height="18" rx="7" fill="#27566D"/>
  <rect x="854" y="418" width="280" height="54" rx="12" fill="#18D2A6"/>
  <text x="994" y="452" text-anchor="middle" fill="#062A1E" font-size="24" font-family="Arial, sans-serif">Checkout</text>

  <circle cx="274" cy="430" r="18" fill="#FF8C42"/>
  <circle cx="472" cy="430" r="18" fill="#FF8C42"/>
  <circle cx="670" cy="430" r="18" fill="#FF8C42"/>

  <text x="120" y="104" fill="#EAF4FF" font-size="50" font-family="Arial, sans-serif">E-commerce Website</text>
  <text x="120" y="592" fill="#A9BFD0" font-size="26" font-family="Arial, sans-serif">Node.js + MySQL Shopping Platform</text>
</svg>
