<svg width="1280" height="720" viewBox="0 0 1280 720" fill="none" xmlns="http://www.w3.org/2000/svg">
  <rect width="1280" height="720" fill="#0B1224"/>
  <rect x="70" y="60" width="1140" height="600" rx="28" fill="#1B2942"/>

  <rect x="130" y="124" width="720" height="460" rx="20" fill="#111D30" stroke="#38BDF8" stroke-opacity="0.35"/>
  <rect x="170" y="168" width="640" height="58" rx="10" fill="#274361"/>
  <text x="190" y="205" fill="#E2E8F0" font-size="30" font-family="Arial, sans-serif">Multi-Service Booking Dashboard</text>

  <rect x="170" y="254" width="188" height="138" rx="12" fill="#22405A"/>
  <rect x="376" y="254" width="188" height="138" rx="12" fill="#22405A"/>
  <rect x="582" y="254" width="188" height="138" rx="12" fill="#22405A"/>

  <rect x="170" y="414" width="188" height="138" rx="12" fill="#22405A"/>
  <rect x="376" y="414" width="188" height="138" rx="12" fill="#22405A"/>
  <rect x="582" y="414" width="188" height="138" rx="12" fill="#22405A"/>

  <rect x="888" y="148" width="262" height="440" rx="18" fill="#111D30" stroke="#22C55E" stroke-opacity="0.35"/>
  <text x="920" y="192" fill="#E2E8F0" font-size="30" font-family="Arial, sans-serif">Services</text>

  <rect x="920" y="220" width="198" height="38" rx="8" fill="#2A4E6B"/>
  <rect x="920" y="274" width="198" height="38" rx="8" fill="#2A4E6B"/>
  <rect x="920" y="328" width="198" height="38" rx="8" fill="#2A4E6B"/>
  <rect x="920" y="382" width="198" height="38" rx="8" fill="#2A4E6B"/>
  <rect x="920" y="436" width="198" height="38" rx="8" fill="#2A4E6B"/>
  <rect x="920" y="508" width="198" height="50" rx="10" fill="#22C55E"/>

  <text x="130" y="104" fill="#F8FAFC" font-size="48" font-family="Arial, sans-serif">Multi-Service Booking System</text>
</svg>
